HIERARCHY
ROOT SpineBase
{
  OFFSET 0.000000 0.000000 0.000000
  CHANNELS 6 Xposition Yposition Zposition Zrotation Xrotation Yrotation
  JOINT SpineMid
  {
    OFFSET 0.000000 30.943736 0.000000
    CHANNELS 3 Zrotation Xrotation Yrotation
    JOINT SpineShoulder
    {
      OFFSET -0.051527 22.876139 -0.648647
      CHANNELS 3 Zrotation Xrotation Yrotation
      JOINT Neck
      {
        OFFSET -0.073189 7.507943 -0.529694
        CHANNELS 3 Zrotation Xrotation Yrotation
        JOINT Head
        {
          OFFSET -2.087326 9.364506 4.215391
          CHANNELS 3 Zrotation Xrotation Yrotation
          End Site
          {
            OFFSET 0 0 0
          }
        }
      }
      JOINT ShoulderLeft
      {
        OFFSET -10.530680 -7.363007 -10.324186
        CHANNELS 3 Zrotation Xrotation Yrotation
        JOINT ElbowLeft
        {
          OFFSET 3.892907 -26.382200 -5.596493
          CHANNELS 3 Zrotation Xrotation Yrotation
          JOINT WristLeft
          {
            OFFSET -11.449134 16.257053 3.166467
            CHANNELS 3 Zrotation Xrotation Yrotation
            JOINT HandLeft
            {
              OFFSET -7.544072 2.938696 -3.958886
              CHANNELS 3 Zrotation Xrotation Yrotation
              JOINT HandTipLeft
              {
                OFFSET -8.129905 3.120259 -1.672770
                CHANNELS 3 Zrotation Xrotation Yrotation
                End Site
                {
                  OFFSET 0 0 0
                }
              }
              JOINT ThumbLeft
              {
                OFFSET 5.330284 5.231128 5.559738
                CHANNELS 3 Zrotation Xrotation Yrotation
                End Site
                {
                  OFFSET 0 0 0
                }
              }
            }
          }
        }
      }
      JOINT ShoulderRight
      {
        OFFSET 0.379418 -4.632378 -11.178102
        CHANNELS 3 Zrotation Xrotation Yrotation
        JOINT ElbowRight
        {
          OFFSET -6.325615 -22.831418 -1.841330
          CHANNELS 3 Zrotation Xrotation Yrotation
          JOINT WristRight
          {
            OFFSET -4.150237 -19.217893 2.312534
            CHANNELS 3 Zrotation Xrotation Yrotation
            JOINT HandRight
            {
              OFFSET -0.874782 -9.311208 2.013790
              CHANNELS 3 Zrotation Xrotation Yrotation
              JOINT HandTipRight
              {
                OFFSET -4.893684 -6.736534 2.938647
                CHANNELS 3 Zrotation Xrotation Yrotation
                End Site
                {
                  OFFSET 0 0 0
                }
              }
              JOINT ThumbRight
              {
                OFFSET -3.191601 3.407188 3.305287
                CHANNELS 3 Zrotation Xrotation Yrotation
                End Site
                {
                  OFFSET 0 0 0
                }
              }
            }
          }
        }
      }
    }
  }
  JOINT HipLeft
  {
    OFFSET -5.009705 0.078463 -0.095670
    CHANNELS 3 Zrotation Xrotation Yrotation
    JOINT KneeLeft
    {
      OFFSET 17.095806 -42.098735 3.581448
      CHANNELS 3 Zrotation Xrotation Yrotation
      JOINT AnkleLeft
      {
        OFFSET -0.497950 -31.444446 4.799690
        CHANNELS 3 Zrotation Xrotation Yrotation
        JOINT FootLeft
        {
          OFFSET -0.040738 -7.140403 -7.721445
          CHANNELS 3 Zrotation Xrotation Yrotation
          End Site
          {
            OFFSET 0 0 0
          }
        }
      }
    }
  }
  JOINT HipRight
  {
    OFFSET 3.703602 1.465263 -6.974573
    CHANNELS 3 Zrotation Xrotation Yrotation
    JOINT KneeRight
    {
      OFFSET 0.327545 -45.230829 4.893517
      CHANNELS 3 Zrotation Xrotation Yrotation
      JOINT AnkleRight
      {
        OFFSET 2.564329 -35.069256 0.458511
        CHANNELS 3 Zrotation Xrotation Yrotation
        JOINT FootRight
        {
          OFFSET -1.601561 -2.554513 -10.056035
          CHANNELS 3 Zrotation Xrotation Yrotation
          End Site
          {
            OFFSET 0 0 0
          }
        }
      }
    }
  }
}
MOTION
Frames: 6
Frame Time: 0.033333
57.467036 80.430981 316.762687 1.995202 0.789119 33.401164 0.544577 -0.338931 -33.332579 0.248076 0.024623 0.136225 -6.953536 2.296052 2.337015 0.000000 0.000000 0.000000 -2.887599 -0.820106 -0.232371 2.180517 0.430028 -0.128280 -2.179612 -0.434597 0.111829 -0.000000 0.000000 0.000000 0.000000 0.000000 0.000000 0.000000 0.000000 0.000000 6.718297 8.622278 -4.363253 -11.920828 -16.323260 2.963819 2.019726 -15.719826 0.613712 0.427546 26.861488 -5.876031 0.000000 0.000000 0.000000 0.000000 0.000000 0.000000 -11.779358 9.783060 -32.621976 40.353828 -2.523717 5.835208 -59.277929 22.970237 32.552265 0.000000 0.000000 0.000000 -1.599975 -1.846575 -33.231449 -10.702702 10.518664 1.356587 9.293376 -6.933702 -2.346571 0.000000 0.000000 0.000000
57.330487 80.271835 317.606030 2.905299 1.009800 34.827520 0.496697 -0.366678 -34.743503 0.212057 0.012177 0.172711 -7.719310 3.638993 2.587415 0.000000 0.000000 0.000000 -2.378303 -0.489805 -0.501303 1.035924 -0.029073 0.085956 -2.393121 -0.476601 0.122483 -0.000000 0.000000 0.000000 0.000000 0.000000 0.000000 0.000000 0.000000 0.000000 6.370737 8.785308 -4.614164 -11.150220 -17.661517 3.634902 0.701803 -15.555998 0.351700 4.048520 28.353014 -6.768989 0.000000 0.000000 0.000000 0.000000 0.000000 0.000000 -15.425804 12.772735 -33.623393 44.741832 -0.953891 5.949357 -61.065612 23.293162 32.887799 0.000000 0.000000 0.000000 -1.294022 -5.231460 -34.275851 -17.239951 14.018738 2.233294 13.309854 -11.478648 -2.821904 0.000000 0.000000 0.000000
57.117751 80.218424 318.551186 4.025707 1.482057 37.195449 0.526666 -0.424153 -37.099461 0.211574 0.007247 0.227004 -7.113772 6.012828 2.269167 0.000000 0.000000 0.000000 -3.683159 -1.132851 -0.610840 1.095449 0.147097 0.085575 -2.331959 -0.463104 0.120521 -0.000000 0.000000 0.000000 0.000000 0.000000 0.000000 0.000000 0.000000 0.000000 5.769687 7.886587 -4.578215 -8.913353 -18.541793 4.874063 -0.060650 -13.523555 0.368920 6.981727 28.843827 -8.035350 0.000000 0.000000 0.000000 0.000000 0.000000 0.000000 -19.390478 16.349644 -35.358318 46.895556 -0.121109 5.788735 -57.044562 24.788459 30.276939 0.000000 0.000000 0.000000 -1.432450 -8.426144 -36.220211 -21.952026 16.176415 2.937276 15.368583 -12.348584 -4.594206 0.000000 0.000000 0.000000
56.783240 80.336640 319.592489 5.337559 2.098077 39.418771 0.486225 -0.490771 -39.323057 0.173082 -0.021217 0.286140 -7.727906 6.893125 2.111676 0.000000 0.000000 0.000000 -6.214190 -1.957044 -0.563786 2.062394 0.402730 -0.123716 -2.061571 -0.406921 0.109145 -0.000000 0.000000 0.000000 0.000000 0.000000 0.000000 0.000000 0.000000 0.000000 1.794768 8.396538 -4.600792 -4.228577 -18.838343 5.721362 2.368821 -11.963186 1.210614 8.633499 28.050692 -9.199833 0.000000 0.000000 0.000000 0.000000 0.000000 0.000000 -23.238022 19.884020 -36.809908 46.338464 0.131970 5.307581 -47.816320 27.300783 25.175052 0.000000 0.000000 0.000000 -1.815667 -10.759356 -38.040005 -24.073652 16.501025 2.922653 15.627469 -11.648488 -8.373383 0.000000 0.000000 0.000000
56.364672 80.594637 320.642603 6.375211 2.462467 41.718229 0.672939 -0.529989 -41.625863 0.164718 -0.025205 0.341359 -5.763734 9.765386 1.144990 0.000000 0.000000 0.000000 -8.365904 -2.932207 -0.626206 2.590272 0.838859 -0.241121 -1.648621 -0.322120 0.090609 -0.000000 0.000000 0.000000 0.000000 0.000000 0.000000 0.000000 0.000000 0.000000 -4.766005 8.881650 -4.199907 1.266824 -17.360047 5.569613 9.790542 -12.014609 3.510601 8.594809 27.765452 -11.028467 0.000000 0.000000 0.000000 0.000000 0.000000 0.000000 -25.957294 23.048936 -38.343310 42.829480 0.082310 4.429516 -32.605456 29.113676 16.499091 0.000000 0.000000 0.000000 -1.760348 -11.989315 -39.982096 -23.653431 14.763444 2.049387 13.970378 -9.229186 -12.595551 0.000000 0.000000 0.000000
55.758677 80.863103 321.686941 7.781964 3.412960 42.425846 0.420319 -0.607725 -42.374335 0.102147 -0.035336 0.396765 -4.160525 11.966779 0.175654 0.000000 0.000000 0.000000 -11.871884 -5.089290 -0.726594 4.349852 2.214813 -0.547182 -1.143923 -0.219673 0.066407 -0.000000 0.000000 0.000000 0.000000 0.000000 0.000000 0.000000 0.000000 0.000000 -12.110411 10.375893 -4.037533 7.374095 -17.028143 5.819646 16.025575 -7.099979 4.475172 7.355715 22.872046 -10.673728 0.000000 0.000000 0.000000 0.000000 0.000000 0.000000 -29.073559 24.411173 -38.761679 36.142947 -0.181832 3.145383 -11.752104 28.224328 4.503809 0.000000 0.000000 0.000000 -2.543484 -11.616126 -40.604710 -18.593048 11.354151 0.471960 9.223005 -5.901619 -16.749719 0.000000 0.000000 0.000000
